<svg xmlns="http://www.w3.org/2000/svg" viewBox="0 0 1121.09 335.93"><title>アセット 8</title><g id="レイヤー_2" data-name="レイヤー 2"><g id="レイヤー_1-2" data-name="レイヤー 1"><path d="M465.82,335.93c-63.17,0-87.86-12.43-106.34-21.73-7-3.5-13-6.55-19.85-8.11a89.87,89.87,0,0,1-41.76,11.62c-33.42,1.21-63.66-14.65-74.6-38.85a182.78,182.78,0,0,1-36,4.88c-29.2,1.06-57.37-4.57-81.46-16.3-23-11.2-40.95-27.65-50.63-46.4C21.52,206.28,1.44,184.21.07,160.39c-1.59-27.9,22.48-54.86,64.42-72.16C81.18,76,106.84,65.91,136.9,59.88,143.36,46.4,157.11,34,175.78,25c19.69-9.57,43.52-15.12,68.9-16,23.82-.87,46.94,2.45,66.85,9.61,18,6.47,32.26,15.63,41.48,26.63C378.85,19.35,428.49,2.22,483.93.2c55.2-2,106.73,11.42,135.42,35.18,17.8-11.53,46.91-19,78.66-20.19,35.77-1.3,68.64,5.59,86.78,18.09C809,15.84,844.43,5.09,882.55,3.7c34.55-1.26,67.68,5.21,93.27,18.22,25.09,12.76,40.32,30.43,43.1,49.93,58.91,11.3,99.83,45,102.07,84.21,1.3,22.68-10.45,45-33.07,62.88-21.93,17.33-52.63,29.37-86.56,34-22.51,31-73.53,52.26-130.49,54.34-32.6,1.18-63.72-3.76-90.17-14.31-20.49,15.79-47.33,25-75.84,26.07C670.19,320.27,637,309.34,613.5,289c-3.25,1.51-6.38,4.49-10.18,8.12-13.94,13.29-37.27,35.54-117.74,38.48Q475.13,335.94,465.82,335.93ZM338.34,300.88l1.38.27c8.32,1.63,15.1,5.05,23,9,19.62,9.87,46.49,23.4,122.63,20.62,77.84-2.84,100.1-24.08,113.41-36.77,5.07-4.83,9.07-8.65,14.51-10.21l1.91-.54,1.34,1.21c22.38,20.14,54.48,31,88.11,29.76,27.74-1,53.81-10.21,73.42-25.89l1.55-1.24,2,.8c25.93,10.71,56.73,15.75,89.08,14.57,55.56-2,105.12-22.79,126.26-52.9l.71-1,1.43-.19c33.27-4.29,63.35-16,84.71-32.83s32.52-37.95,31.3-59.25c-2.14-37.53-42.14-69.74-99.52-80.15l-2.15-.39-.18-1.75c-1.93-18.65-16.33-35.71-40.55-48C948,13.48,916.15,7.27,882.82,8.49c-37.78,1.38-72.76,12.23-96,29.78l-2.07,1.56-2.06-1.57C766.51,25.87,733.35,18.69,698.29,20c-31.8,1.16-60.65,8.82-77.2,20.49L618.88,42l-2-1.75C589.8,16.52,539,3,484.21,5c-27.75,1-54.57,5.95-77.55,14.3-22.22,8.06-40,19-51.47,31.49l-2.69,2.95-2.32-3.15C332.76,26.87,290.48,12.05,245,13.72c-48.59,1.77-90.93,21.91-103,49l-.54,1.22-1.57.31C109.93,70.07,84.5,79.92,68.26,92l-.3.22-.37.15c-40,16.42-63,41.78-61.52,67.83,1.27,22.32,20.57,43.12,53,57.07l1,.41.4.8c9.09,18.13,26.35,34.07,48.59,44.9C132,274.58,159,280,187,279a175.42,175.42,0,0,0,37.21-5.35l2.88-.75.9,2.31c9.22,23.39,37.83,38.91,69.56,37.76a82.51,82.51,0,0,0,39.61-11.36Z"/></g></g></svg>