<svg xmlns="http://www.w3.org/2000/svg" viewBox="0 0 1121.09 420.43"><title>アセット 8</title><g id="レイヤー_2" data-name="レイヤー 2"><g id="レイヤー_1-2" data-name="レイヤー 1"><path d="M465.82,420.43c-63.17,0-87.86-15.56-106.34-27.2-7-4.38-13-8.2-19.85-10.15a76.79,76.79,0,0,1-41.76,14.54c-33.42,1.51-63.66-18.34-74.6-48.62a148.42,148.42,0,0,1-36,6.1c-29.2,1.33-57.37-5.71-81.46-20.39-23-14-40.95-34.61-50.63-58.07C21.52,258.16,1.44,230.54.07,200.73c-1.59-34.92,22.48-68.65,64.42-90.31,16.69-15.37,42.35-27.93,72.41-35.48,6.46-16.87,20.21-32.33,38.88-43.69,19.69-12,43.52-18.92,68.9-20.08,23.82-1.09,46.94,3.07,66.85,12,18,8.1,32.26,19.57,41.48,33.33C378.85,24.22,428.49,2.78,483.93.25c55.2-2.52,106.73,14.3,135.42,44C637.15,29.85,666.26,20.46,698,19c35.77-1.63,68.64,7,86.78,22.64,24.2-21.82,59.64-35.27,97.76-37,34.55-1.59,67.68,6.51,93.27,22.8,25.09,16,40.32,38.08,43.1,62.48,58.91,14.14,99.83,56.28,102.07,105.4,1.3,28.37-10.45,56.32-33.07,78.69-21.93,21.69-52.63,36.75-86.56,42.51-22.51,38.77-73.53,65.41-130.49,68-32.6,1.48-63.72-4.7-90.17-17.91a117,117,0,0,1-167.2-5c-3.25,1.89-6.38,5.62-10.18,10.16-13.94,16.64-37.27,44.48-117.74,48.16Q475.13,420.44,465.82,420.43ZM338.34,376.55l1.38.34c8.32,2.05,15.1,6.32,23,11.27,19.62,12.36,46.49,29.29,122.63,25.8,77.84-3.55,100.1-30.13,113.41-46,5.07-6.05,9.07-10.83,14.51-12.78l1.91-.68,1.34,1.51A111,111,0,0,0,778,360.85l1.55-1.56,2,1c25.93,13.41,56.73,19.71,89.08,18.23C926.15,376,975.71,350,996.85,312.33l.71-1.27,1.43-.23c33.27-5.38,63.35-20,84.71-41.09s32.52-47.49,31.3-74.15c-2.14-47-42.14-87.28-99.52-100.31l-2.15-.48-.18-2.2c-1.93-23.35-16.33-44.69-40.55-60.1C948,16.87,916.15,9.1,882.82,10.63c-37.78,1.72-72.76,15.31-96,37.26l-2.07,2-2.06-2C766.51,32.38,733.35,23.39,698.29,25c-31.8,1.45-60.65,11-77.2,25.65l-2.21,2-2-2.19C589.8,20.67,539,3.74,484.21,6.24c-27.75,1.27-54.57,7.46-77.55,17.9-22.22,10.09-40,23.72-51.47,39.41l-2.69,3.69-2.32-3.94C332.76,33.63,290.48,15.09,245,17.17,196.37,19.39,154,44.59,142,78.47L141.45,80l-1.57.38C109.93,87.69,84.5,100,68.26,115.1l-.3.28-.37.19c-40,20.55-63,52.28-61.52,84.88,1.27,27.94,20.57,54,53,71.43l1,.51.4,1C69.47,296.08,86.73,316,109,329.59,132,343.64,159,350.39,187,349.11a142.25,142.25,0,0,0,37.21-6.7l2.88-.93.9,2.88c9.22,29.28,37.83,48.71,69.56,47.26a70.69,70.69,0,0,0,39.61-14.21Z"/></g></g></svg>