<svg xmlns="http://www.w3.org/2000/svg" viewBox="0 0 188.46 226.3"><defs><style>.cls-1{fill:#f6ab00;}.cls-2{fill:#77473d;}.cls-3{fill:#109333;}.cls-4{fill:#67af29;}.cls-5{fill:#fff;}.cls-6{fill:#e70025;}</style></defs><title>アセット 2</title><g id="レイヤー_2" data-name="レイヤー 2"><g id="レイヤー_1-2" data-name="レイヤー 1"><path class="cls-1" d="M183.31,66.62c-4.19-32.16-7-53.14-18.18-61.53s-18.18,0-21,4.2-16.79,32.16-22.38,33.56c-5.15,1.28-24.5,1.38-27.55,1.4s-22.4-.12-27.55-1.4c-5.59-1.4-19.57-29.37-22.37-33.56s-9.79-12.59-21-4.2S9.35,34.46,5.15,66.62,1,160.32,2.36,168.71c.87,5.24,1.74,12.67,7.74,21.94,3.6,5.57,9,11.79,17.43,18.61,22.22,18.05,47.18,15.42,66.7,15.38s44.49,2.67,66.71-15.38a89.28,89.28,0,0,0,14.41-14.37c8.75-11.26,9.75-20.16,10.76-26.18C187.51,160.32,187.51,98.78,183.31,66.62Z"/><path class="cls-2" d="M139.35,85.64a18.58,18.58,0,0,0-5.15-4.58,18.48,18.48,0,0,0,5.33-6.3c4.43-8.58,1.54-18.89-6.46-23-7.8-4-70.25-4.14-78.24,0s-10.89,14.44-6.46,23a18.48,18.48,0,0,0,5.33,6.3,18.58,18.58,0,0,0-5.15,4.58c-5.92,7.64-4.94,18.3,2.19,23.81,6.89,5.34,17,3.87,23-3.17,2,13,10.24,22.81,20.07,22.81S112,119.2,113.93,106c6,7.26,16.25,8.83,23.23,3.42S145.26,93.28,139.35,85.64Z"/><path class="cls-3" d="M93.91,72.12c9.79,0,36.36-8.39,37.76-25.17s-5.59-33.57-18.18-39.16S77.13,2.2,67.34,12,52,41.35,59,56.73,86.92,72.12,93.91,72.12Z"/><path class="cls-4" d="M131.75,39.61c-.85-14.12-7.51-27-18.26-31.82C100.91,2.2,77.13,2.2,67.34,12,61,18.34,56.4,28.82,55.88,39.59c-.14,2.92,10.07,17.14,38,18.54S131.83,40.82,131.75,39.61Z"/><path class="cls-5" d="M10.21,191.35c3.59,5.56,9,11.78,17.42,18.61,22.22,18,47.18,15.42,66.71,15.38S138.82,228,161,210a90.2,90.2,0,0,0,14.42-14.36s-4.63-9.51-18.61-9.51-32.17,0-42-4.2-16.78-9.79-22.37-9.79-14,8.39-26.57,9.79-26.57,2.8-33.56,2.8-12.59-1.4-16.78,1.4S10.21,191.35,10.21,191.35Z"/><ellipse cx="133.77" cy="165.11" rx="4.2" ry="6.99"/><ellipse cx="49.86" cy="165.11" rx="4.2" ry="6.99"/><ellipse class="cls-6" cx="91.82" cy="201.47" rx="1.4" ry="4.2"/><path d="M154.05,20.38a19.55,19.55,0,0,1,5.77,6.23,24.19,24.19,0,0,1,3.06,8,23.62,23.62,0,0,1,0,8.63,19.48,19.48,0,0,1-3.27,7.85c0-2.86.06-5.5-.07-8.1a55.93,55.93,0,0,0-.87-7.6A59.28,59.28,0,0,0,156.8,28C156,25.52,155,23.05,154.05,20.38Z"/><path d="M36.58,19c-.85,2.71-1.88,5.19-2.72,7.65a53.4,53.4,0,0,0-2,7.35c-.48,2.48-.79,5-1.09,7.65a78.23,78.23,0,0,1-1.19,8.11,28.66,28.66,0,0,1-2.15-8.09,27.26,27.26,0,0,1,.26-8.49A23.29,23.29,0,0,1,36.58,19Z"/><path d="M184.8,66.43c-4.22-32.35-7-53.72-18.77-62.54C161.86.76,157.77-.49,153.9.17c-4.1.7-7.8,3.49-11,8.28-.7,1.06-2,3.33-3.71,6.49-1.85,3.33-4.77,8.61-7.79,13.58-2.7-9.38-8.1-17-15.27-21.07l-.19-.1c-.6-.34-1.22-.65-1.85-.93-6.56-2.92-15.84-4.34-24.82-3.8-10.08.61-18.25,3.56-23,8.3-.38.39-.75.78-1.11,1.19l-.35.39c-.26.29-.51.6-.76.9l-.34.42c-.35.44-.68.88-1,1.33l-.08.12c-.31.43-.61.88-.91,1.33l-.24.37c-.27.42-.53.85-.79,1.29l-.12.21a46.62,46.62,0,0,0-4,9.17c-2.82-4.7-5.52-9.57-7.25-12.7s-3-5.43-3.71-6.49c-3.2-4.79-6.9-7.58-11-8.28-3.88-.66-8,.59-12.14,3.72C10.67,12.71,7.88,34.08,3.67,66.43-.52,98.55-.61,160,.88,169l.18,1.1a50.5,50.5,0,0,0,7.58,21.09l.2.33c4.11,6.35,10.07,12.72,17.74,18.95C44.08,224.64,63.4,226.3,80.1,226.3c2.62,0,5.17,0,7.65-.08q3.33-.06,6.48-.08c2.1,0,4.27,0,6.49.08,18.23.29,40.92.65,61.16-15.8a91.88,91.88,0,0,0,14.65-14.61l.43-.57a51.2,51.2,0,0,0,10.45-25.19l.18-1.1C189.07,160,189,98.55,184.8,66.43Zm-127-31a42.2,42.2,0,0,1,.85-4.2,41.67,41.67,0,0,1,7.86-16.1l.38-.46.47-.53c.33-.36.66-.72,1-1C73,8.44,83,5.39,93.69,5.39a47.92,47.92,0,0,1,19.19,3.77c.54.24,1.06.51,1.58.79l.32.18c.47.27.93.56,1.39.86l.47.33,1,.75c.29.23.58.47.86.72s.36.31.54.48c4.84,4.46,8.42,11.16,10.15,18.85.06.3.13.6.19.9,0,.07,0,.15,0,.22.13.66.24,1.32.35,2,0,.37.11.74.16,1.11v.07c0,.3.07.59.1.89.08.65.14,1.31.18,2,0,.08,0,.16,0,.24A28.77,28.77,0,0,1,122,49a35.47,35.47,0,0,1-8.83,4.89,39.83,39.83,0,0,1-6.26,1.83A50.17,50.17,0,0,1,94,56.63a72.73,72.73,0,0,1-8.78-.94A58,58,0,0,1,72.79,52.2a45.54,45.54,0,0,1-5.85-2.91c-6.35-3.79-9.27-7.91-9.54-9.44A41.58,41.58,0,0,1,57.85,35.39Zm72.44,9.67c0,.58-.06,1.17-.11,1.76a16.63,16.63,0,0,1-.36,2.15,15.79,15.79,0,0,1-1,2.86c-5.49,12.24-26.12,18.79-34.94,18.79-6.68,0-27,0-33.59-14.51a30.9,30.9,0,0,1-1.56-4.21c-.28-1-.52-1.94-.71-2.91-.22-1.13-.38-2.26-.5-3.39a29,29,0,0,0,3.11,3A37.52,37.52,0,0,0,65.53,52a46.37,46.37,0,0,0,5.86,2.91,56.41,56.41,0,0,0,6,2.11c1,.28,2,.54,3,.79q2.42.56,5,1a81.82,81.82,0,0,0,8.34.85c1,0,2.07.08,3.08.08a52.41,52.41,0,0,0,9.68-.88,44.37,44.37,0,0,0,8.18-2.35,39,39,0,0,0,8.5-4.69,38.33,38.33,0,0,0,3.84-3.23l.62-.6A32.7,32.7,0,0,0,130.29,45.06Zm-72.7,12.3C65,73.62,86.76,73.62,93.91,73.62c9.81,0,31.85-7.08,37.8-20.86.23.11.45.19.67.31,7.26,3.75,9.86,13.17,5.81,21a16.9,16.9,0,0,1-4.89,5.79l-1.8,1.34,1.93,1.15a17.13,17.13,0,0,1,4.74,4.21,16.57,16.57,0,0,1,3.48,11.65,14.12,14.12,0,0,1-5.4,10.05c-6.35,4.92-15.64,3.52-21.16-3.18l-2.15-2.61-.49,3.34c-1.88,12.62-9.71,21.78-18.63,21.78s-16.65-9.06-18.59-21.54l-.5-3.23-2.12,2.49c-5.52,6.48-14.73,7.78-21,3a14.12,14.12,0,0,1-5.4-10.05,16.57,16.57,0,0,1,3.48-11.65,17,17,0,0,1,4.74-4.21l1.92-1.15L54.6,79.86a16.79,16.79,0,0,1-4.89-5.79A16.56,16.56,0,0,1,48.38,62a14.2,14.2,0,0,1,7.13-8.92l.41-.18A34.53,34.53,0,0,0,57.59,57.36ZM12.2,191.07a18.56,18.56,0,0,1,4.24-3.73c2.67-1.78,6.18-1.59,10.62-1.34,1.69.09,3.44.19,5.33.19,5.78,0,16.49-.89,33.72-2.81,7.48-.83,13.46-4,18.27-6.54,3.28-1.74,6.11-3.24,8.14-3.24,3.11,0,7.11,2.16,11.74,4.66,3,1.6,6.3,3.41,10,5,10.08,4.32,28.08,4.32,42.55,4.32,9.94,0,14.75,5,16.48,7.42A91.33,91.33,0,0,1,160,208.1c-19.4,15.75-40.56,15.41-59.23,15.12q-3.35-.06-6.53-.08t-6.53.08c-18.67.29-39.83.63-59.23-15.12A83.43,83.43,0,0,1,12.2,191.07Zm172.43-22.61-.18,1.11c-.92,5.68-2.18,13.36-9.23,23-2.45-3.07-8-8-18.37-8-13.45,0-31.86,0-41.37-4.08-3.61-1.55-6.89-3.32-9.79-4.89-5.2-2.8-9.3-5-13.17-5-2.77,0-5.76,1.59-9.55,3.59-4.58,2.43-10.28,5.44-17.19,6.21-16.88,1.88-27.8,2.79-33.39,2.79-1.81,0-3.51-.1-5.16-.19-4.8-.26-8.95-.5-12.46,1.84a22.73,22.73,0,0,0-4.28,3.61A48.13,48.13,0,0,1,4,169.57l-.18-1.11C2.41,159.89,2.58,98,6.64,66.82c4.12-31.6,6.84-52.47,17.59-60.53C27.15,4.1,29.94,3,32.54,3a8.51,8.51,0,0,1,1.52.13c3.25.56,6.28,2.91,9,7,.63,1,1.93,3.3,3.58,6.27,3.31,6,6.23,11.08,8.8,15.23a43,43,0,0,0-.27,18.32c-.35.15-.7.29-1,.47a17.1,17.1,0,0,0-8.65,10.77A19.54,19.54,0,0,0,47,75.45a19.9,19.9,0,0,0,4.17,5.48,20.07,20.07,0,0,0-3.85,3.8,19.51,19.51,0,0,0-4.1,13.75,17.14,17.14,0,0,0,6.56,12.16c6.75,5.23,16.36,4.54,23-1.27,2.88,12.63,11.24,21.22,21,21.22s18.21-8.84,21.05-21.41c6.64,6,16.34,6.78,23.21,1.46a17.14,17.14,0,0,0,6.56-12.16,19.51,19.51,0,0,0-4.1-13.75,20.07,20.07,0,0,0-3.85-3.8,19.9,19.9,0,0,0,4.17-5.48c4.81-9.3,1.62-20.54-7.1-25-.35-.19-.72-.34-1.08-.5a18.71,18.71,0,0,0,.49-2.84,53,53,0,0,0-.77-14.44c2.72-4.33,5.84-9.77,9.42-16.24,1.65-3,3-5.32,3.58-6.27,2.72-4.08,5.75-6.43,9-7,3-.52,6.34.54,9.83,3.16C175,14.35,177.7,35.22,181.82,66.82,185.88,98,186.06,159.89,184.63,168.46Z"/></g></g></svg>