<svg xmlns="http://www.w3.org/2000/svg" viewBox="0 0 191.44 229.3"><defs><style>.cls-1{fill:#f6ab00;}.cls-2{fill:#77473d;}.cls-3{fill:#109333;}.cls-4{fill:#67af29;}.cls-5{fill:#fff;}.cls-6{fill:#e70025;}</style></defs><title>アセット 10</title><g id="レイヤー_2" data-name="レイヤー 2"><g id="レイヤー_1-2" data-name="レイヤー 1"><path class="cls-1" d="M184.8,68.12C180.61,36,177.81,15,166.62,6.59s-18.18,0-21,4.2S128.86,43,123.27,44.35c-5.15,1.29-24.5,1.38-27.55,1.4s-22.4-.11-27.55-1.4C62.58,43,48.59,15,45.8,10.79S36-1.8,24.82,6.59,10.84,36,6.64,68.12s-4.19,93.7-2.79,102.09c.87,5.24,1.74,12.67,7.74,21.94,3.6,5.57,9,11.79,17.43,18.61,22.22,18.06,47.18,15.43,66.7,15.38s44.49,2.68,66.71-15.38a89.28,89.28,0,0,0,14.41-14.37c8.75-11.26,9.75-20.16,10.76-26.18C189,161.82,189,100.29,184.8,68.12Z"/><path class="cls-2" d="M140.84,87.15a18.46,18.46,0,0,0-5.15-4.59,18.34,18.34,0,0,0,5.32-6.3c4.44-8.58,1.55-18.89-6.45-23-7.8-4-70.25-4.14-78.25,0s-10.88,14.44-6.45,23a18.48,18.48,0,0,0,5.33,6.3A18.46,18.46,0,0,0,50,87.15c-5.92,7.63-4.94,18.29,2.19,23.8,6.89,5.34,17,3.88,23-3.16,2,13,10.24,22.8,20.07,22.8s18.15-9.89,20.11-23.06c6,7.26,16.25,8.83,23.23,3.42S146.75,94.78,140.84,87.15Z"/><path class="cls-3" d="M95.4,73.62c9.79,0,36.36-8.39,37.76-25.17S127.57,14.89,115,9.29,78.62,3.7,68.83,13.49,53.45,42.85,60.44,58.24,88.41,73.62,95.4,73.62Z"/><path class="cls-4" d="M133.24,41.12c-.85-14.13-7.51-27-18.26-31.83C102.4,3.7,78.62,3.7,68.83,13.49,62.48,19.84,57.89,30.32,57.37,41.1c-.14,2.91,10.07,17.14,38,18.53S133.32,42.33,133.24,41.12Z"/><path class="cls-5" d="M11.7,192.85c3.59,5.56,9,11.79,17.42,18.61,22.22,18,47.18,15.43,66.71,15.38s44.48,2.67,66.7-15.38A90.2,90.2,0,0,0,177,197.1s-4.63-9.51-18.61-9.51-32.17,0-42-4.2S99.6,173.61,94,173.61,80,182,67.44,183.39s-26.57,2.8-33.56,2.8-12.59-1.4-16.78,1.4S11.7,192.85,11.7,192.85Z"/><ellipse cx="135.26" cy="166.61" rx="4.2" ry="6.99"/><ellipse cx="51.35" cy="166.61" rx="4.2" ry="6.99"/><ellipse class="cls-6" cx="93.31" cy="202.97" rx="1.4" ry="4.2"/><path d="M155.54,21.88a19.55,19.55,0,0,1,5.77,6.23,24.19,24.19,0,0,1,3.06,8,23.4,23.4,0,0,1,0,8.63,19.33,19.33,0,0,1-3.26,7.85c0-2.86.06-5.5-.07-8.1a56.11,56.11,0,0,0-.87-7.6,58.7,58.7,0,0,0-1.9-7.43C157.5,27,156.53,24.55,155.54,21.88Z"/><path d="M38.07,20.48c-.85,2.71-1.88,5.19-2.72,7.65a53.4,53.4,0,0,0-2,7.35c-.48,2.48-.79,5-1.09,7.66a78.45,78.45,0,0,1-1.19,8.1,28.68,28.68,0,0,1-2.15-8.08,27.32,27.32,0,0,1,.26-8.5,23.17,23.17,0,0,1,8.88-14.18Z"/><path d="M186.29,67.93c-4.22-32.35-7-53.72-18.77-62.54-4.17-3.13-8.26-4.38-12.13-3.72-4.1.71-7.8,3.49-11,8.29-.7,1-2,3.32-3.71,6.48-1.85,3.33-4.77,8.61-7.79,13.59C130.2,20.64,124.8,13,117.63,9l-.19-.1c-.6-.34-1.22-.65-1.85-.93C109,5,99.75,3.58,90.77,4.12c-10.08.61-18.25,3.56-23,8.31-.38.38-.75.77-1.11,1.18l-.35.39c-.26.3-.51.6-.76.91-.12.14-.23.27-.34.42-.35.43-.68.87-1,1.32l-.08.12c-.31.44-.61.88-.91,1.33l-.24.37c-.27.43-.53.85-.79,1.29l-.12.22A45.54,45.54,0,0,0,58,29.15c-2.82-4.71-5.52-9.58-7.25-12.71S47.75,11,47.05,10c-3.2-4.8-6.9-7.58-11-8.29-3.88-.66-8,.59-12.14,3.72C12.16,14.21,9.37,35.58,5.15,67.93,1,100.05.88,161.54,2.37,170.45l.18,1.1a50.5,50.5,0,0,0,7.58,21.09l.2.33c4.1,6.35,10.07,12.73,17.74,19,17.5,14.21,36.82,15.87,53.52,15.87,2.62,0,5.17,0,7.65-.08q3.33-.06,6.48-.08c2.1,0,4.27,0,6.49.08,18.23.3,40.92.65,61.16-15.79A92.29,92.29,0,0,0,178,197.32l.43-.57a51.36,51.36,0,0,0,10.45-25.2l.18-1.1C190.56,161.54,190.48,100.05,186.29,67.93Zm-126.95-31a42.2,42.2,0,0,1,.85-4.2,41.67,41.67,0,0,1,7.86-16.1l.38-.46.47-.53,1-1C74.5,9.94,84.52,6.9,95.18,6.9a47.92,47.92,0,0,1,19.19,3.76c.54.24,1.06.51,1.58.8l.32.17c.47.27.93.56,1.39.87l.46.32c.34.24.67.49,1,.75s.58.47.86.72.36.31.54.48c4.84,4.46,8.42,11.16,10.15,18.85.06.3.13.6.19.9,0,.07,0,.15,0,.23.13.65.24,1.31.35,2,.05.36.11.73.16,1.11v.06c0,.3.07.59.1.89.08.65.14,1.31.18,2,0,.08,0,.16,0,.24a28.77,28.77,0,0,1-8.29,9.5,35.47,35.47,0,0,1-8.83,4.89,39.83,39.83,0,0,1-6.26,1.83,50.6,50.6,0,0,1-12.87.92,74.73,74.73,0,0,1-8.78-1A58,58,0,0,1,74.28,53.7a44.27,44.27,0,0,1-5.85-2.91c-6.35-3.79-9.27-7.91-9.54-9.43A41.77,41.77,0,0,1,59.34,36.89Zm72.44,9.67c0,.59-.07,1.17-.11,1.76a16.63,16.63,0,0,1-.36,2.15,15.79,15.79,0,0,1-1,2.86c-5.49,12.24-26.12,18.79-34.94,18.79-6.68,0-27,0-33.59-14.51a30.9,30.9,0,0,1-1.56-4.21c-.28-1-.52-1.93-.71-2.91s-.38-2.26-.5-3.39a29,29,0,0,0,3.11,3A38.51,38.51,0,0,0,67,53.49a46.37,46.37,0,0,0,5.86,2.91,53.58,53.58,0,0,0,6,2.11c1,.28,2,.54,3,.79q2.41.56,5,1a79.08,79.08,0,0,0,8.34.85c1,.06,2.07.08,3.08.08a52.41,52.41,0,0,0,9.68-.88A43.28,43.28,0,0,0,116.26,58a38.87,38.87,0,0,0,8.51-4.69,35.84,35.84,0,0,0,3.84-3.23l.62-.6A32.7,32.7,0,0,0,131.78,46.56Zm-72.7,12.3C66.47,75.12,88.25,75.12,95.4,75.12c9.81,0,31.85-7.08,37.8-20.85.23.1.45.19.67.3,7.26,3.75,9.86,13.17,5.81,21a16.9,16.9,0,0,1-4.89,5.79L133,82.7l1.93,1.15a17.29,17.29,0,0,1,4.74,4.21,16.57,16.57,0,0,1,3.48,11.65,14.14,14.14,0,0,1-5.41,10.06c-6.34,4.91-15.63,3.51-21.15-3.19L114.43,104l-.49,3.34c-1.88,12.62-9.71,21.78-18.63,21.78s-16.65-9-18.59-21.53l-.5-3.24-2.12,2.49c-5.52,6.48-14.73,7.78-21,3a14.16,14.16,0,0,1-5.4-10.06,16.57,16.57,0,0,1,3.48-11.65A17.15,17.15,0,0,1,56,83.85l1.92-1.15-1.79-1.34a16.79,16.79,0,0,1-4.89-5.79,16.56,16.56,0,0,1-1.33-12.08A14.2,14.2,0,0,1,57,54.57l.41-.18A34,34,0,0,0,59.08,58.86ZM13.69,192.58a18.3,18.3,0,0,1,4.24-3.74c2.67-1.78,6.18-1.59,10.62-1.34,1.69.09,3.44.19,5.33.19,5.78,0,16.49-.89,33.72-2.8,7.48-.84,13.46-4,18.27-6.55,3.28-1.73,6.11-3.23,8.14-3.23,3.11,0,7.11,2.16,11.74,4.66,3,1.59,6.3,3.4,10,5,10.07,4.32,28.08,4.32,42.55,4.32,9.94,0,14.75,5,16.48,7.42a91.33,91.33,0,0,1-13.34,13.09c-19.4,15.76-40.56,15.41-59.23,15.12q-3.34-.06-6.53-.08t-6.53.08c-18.67.3-39.83.64-59.23-15.12A83.4,83.4,0,0,1,13.69,192.58ZM186.12,170l-.18,1.11c-.92,5.68-2.18,13.36-9.23,23-2.45-3.06-8-8-18.37-8-13.45,0-31.86,0-41.37-4.07-3.61-1.55-6.89-3.33-9.79-4.89-5.2-2.81-9.3-5-13.17-5-2.77,0-5.76,1.58-9.55,3.58-4.58,2.43-10.28,5.45-17.19,6.21-16.88,1.88-27.8,2.79-33.39,2.79-1.81,0-3.51-.09-5.16-.19-4.8-.26-8.95-.5-12.46,1.84A22.73,22.73,0,0,0,12,190a48.13,48.13,0,0,1-6.47-18.88L5.32,170C3.9,161.4,4.07,99.46,8.13,68.32,12.25,36.73,15,15.85,25.72,7.79,28.64,5.61,31.43,4.5,34,4.5a9.54,9.54,0,0,1,1.52.13c3.25.56,6.28,2.91,9,7,.63,1,1.93,3.3,3.58,6.27,3.31,6,6.23,11.08,8.8,15.24a43,43,0,0,0-.27,18.31c-.35.15-.7.29-1,.47A17.12,17.12,0,0,0,47,62.68,19.54,19.54,0,0,0,48.53,77a20.06,20.06,0,0,0,4.16,5.48,20.31,20.31,0,0,0-3.84,3.8A19.51,19.51,0,0,0,44.75,100a17.13,17.13,0,0,0,6.56,12.16c6.75,5.23,16.36,4.54,23-1.27,2.88,12.63,11.24,21.22,21,21.22s18.21-8.84,21-21.41c6.64,6,16.34,6.78,23.21,1.46A17.13,17.13,0,0,0,146.13,100,19.51,19.51,0,0,0,142,86.23a20.07,20.07,0,0,0-3.85-3.8A19.9,19.9,0,0,0,142.35,77c4.81-9.3,1.62-20.53-7.1-25-.35-.19-.72-.34-1.08-.5a18.71,18.71,0,0,0,.49-2.84,53,53,0,0,0-.77-14.44c2.72-4.33,5.84-9.77,9.42-16.24,1.65-3,2.95-5.32,3.58-6.27,2.72-4.08,5.75-6.43,9-7,3-.52,6.34.54,9.83,3.16,10.75,8.06,13.47,28.94,17.59,60.53C187.37,99.46,187.55,161.4,186.12,170Z"/><path d="M110,229.3c-2.67,0-5.27,0-7.79-.08-2.21,0-4.37-.07-6.46-.08s-4.25,0-6.46.08c-2.48,0-5,.08-7.67.08-17.93,0-36.93-2-54.46-16.21-7.79-6.33-13.87-12.82-18.06-19.31l-.21-.33c-5.75-9-6.93-16.33-7.79-21.66L.89,170.7c-1.5-9-1.43-70.74,2.78-103C7.94,35,10.76,13.39,23,4.19,27.54.8,32-.54,36.31.2c4.52.77,8.55,3.77,12,8.92.74,1.11,2,3.4,3.77,6.58,1.34,2.41,3.39,6.11,5.61,9.92a46.64,46.64,0,0,1,3.09-6.4l.08-.14c.32-.53.59-1,.87-1.41l.25-.39c.3-.47.62-.93.94-1.38l.08-.12c.34-.48.69-.93,1.05-1.38l.29-.37c.33-.39.59-.71.86-1l.36-.41c.39-.42.77-.84,1.17-1.24,5-5,13.52-8.11,24-8.73,9.21-.55,18.74.91,25.52,3.92.63.28,1.27.6,2,1l.19.11C125,11.35,130.2,18,133.3,26.42c2.41-4.08,4.64-8.11,6.08-10.71,1.76-3.18,3-5.48,3.77-6.59C146.58,4,150.61,1,155.13.2c4.3-.74,8.77.61,13.29,4,12.27,9.2,15.09,30.82,19.35,63.54h0c4.21,32.23,4.28,94,2.79,103l-.18,1.09a52.43,52.43,0,0,1-10.74,25.86l-.16.22-.28.37a93.13,93.13,0,0,1-14.88,14.85C146.46,227.6,126.88,229.3,110,229.3Zm-6.42-3.06,4.17,0Zm-7.84-.1-3.27,0Zm0,0,3.12,0-3.12,0ZM15.6,192.68a83.2,83.2,0,0,0,15.31,15.75c19,15.41,39.83,15.08,58.24,14.79,2.26,0,4.44-.07,6.57-.08s4.32,0,6.56.08c18.43.29,39.29.62,58.25-14.79a91.92,91.92,0,0,0,12.36-11.94c-2-2.28-6.39-5.9-14.55-5.9-14.61,0-32.78,0-43.14-4.44-3.8-1.63-7.17-3.45-10.15-5.06-4.46-2.41-8.31-4.48-11-4.48-1.65,0-4.46,1.48-7.44,3.06-4.92,2.61-11,5.84-18.8,6.71-17.29,1.92-28.06,2.81-33.89,2.81-1.92,0-3.68-.1-5.38-.19-4.19-.24-7.48-.42-9.74,1.09A18.43,18.43,0,0,0,15.6,192.68Zm160.26,2.71.17.24.68.93-.73.89a92.22,92.22,0,0,1-13.55,13.31l-.83.66.83-.66a91.41,91.41,0,0,0,14.32-14.25Zm-164.1-3a81.38,81.38,0,0,0,16.06,17.36,82.82,82.82,0,0,1-15.36-16.36l-.63-.91.69-.87a19.9,19.9,0,0,1,4.45-4A21.55,21.55,0,0,0,13.09,191Zm146.7-4.83c7.59,0,12.4,2.87,15.17,5.37C170.83,190.42,166,187.62,158.46,187.59ZM94,170.61c4.25,0,8.5,2.29,13.88,5.2,2.87,1.55,6.12,3.3,9.67,4.83,9.23,4,27.46,4,40.78,4,9.48,0,15.19,3.93,18.24,7.06,5.9-8.65,7-15.64,7.88-20.82l.18-1.12c1.42-8.51,1.23-70.16-2.81-101.2-4.08-31.22-6.77-51.84-17-59.52-3.14-2.36-6-3.33-8.68-2.88-2.82.49-5.52,2.62-8,6.34-.59.9-1.94,3.32-3.5,6.13-3.89,7-6.74,12-9.17,15.85a53.9,53.9,0,0,1,.68,14.27,17.43,17.43,0,0,1-.25,1.85l0,0a18.67,18.67,0,0,1,9.38,11.65,21,21,0,0,1-1.64,15.42,21.9,21.9,0,0,1-3.26,4.68,22.72,22.72,0,0,1,2.8,3,21,21,0,0,1,4.4,14.81,18.62,18.62,0,0,1-7.13,13.21c-6.71,5.19-16.15,5.08-23.26,0-3.5,12.06-12.27,20.28-21.92,20.28s-18.38-8-21.89-20.13c-7.08,4.93-16.43,5-23-.13a18.62,18.62,0,0,1-7.13-13.21,21,21,0,0,1,4.4-14.81,22.07,22.07,0,0,1,2.8-3,21.9,21.9,0,0,1-3.26-4.68,21,21,0,0,1-1.66-15.37,18.63,18.63,0,0,1,9.4-11.7h0a44.79,44.79,0,0,1,.37-17.16c-2.28-3.73-5-8.45-8.51-14.78-1.57-2.83-2.92-5.27-3.52-6.17-2.48-3.72-5.17-5.85-8-6.34-2.63-.45-5.54.53-8.68,2.88-10.24,7.68-12.93,28.3-17,59.52-4,31-4.23,92.69-2.82,101.2L7,170.83a47.52,47.52,0,0,0,5.32,16.68,26.5,26.5,0,0,1,3.12-2.42c3.92-2.61,8.5-2.35,13.36-2.08,1.63.09,3.3.18,5.09.18,5.53,0,16.4-.91,33.23-2.78,6.62-.73,12.18-3.68,16.65-6C87.73,172.27,90.87,170.61,94,170.61Zm64.44,17h0Zm0,0h0Zm0,0h0Zm0,0Zm-45.76-5.94q1.83.9,3.78,1.74c9.79,4.2,27.63,4.2,42,4.2-13.58,0-32.17,0-42-4.2C115.08,182.83,113.81,182.25,112.6,181.65Zm-88.21,4.19c-2.77,0-5.14.34-7.22,1.7,2.61-1.7,5.8-1.81,9.44-1.64Q25.46,185.84,24.39,185.84ZM3.88,170.4l.15.91a51.7,51.7,0,0,0,4.49,15.41A51.42,51.42,0,0,1,4,171.31ZM31.3,186.14c.84,0,1.69.05,2.58.05,5.72,0,16.38-.89,33.56-2.8,7.19-.79,13-3.89,17.72-6.37,3.47-1.83,6.45-3.41,8.85-3.41,3.49,0,7.64,2.24,12.45,4.83l1,.54-1-.53c-5-2.71-9-4.84-12.46-4.84-2.4,0-5.24,1.5-8.84,3.41-4.7,2.48-10.54,5.58-17.73,6.37-16.94,1.89-27.92,2.8-33.56,2.8C33,186.19,32.13,186.17,31.3,186.14Zm-3.95-.21,1.28.07,1.34.07L28.63,186ZM6.52,69.1c-4,32.07-4.14,91.57-2.7,100.93C2.43,160.9,2.59,100.45,6.52,69.1Zm178.37-.25c3.94,31.13,4.13,91.44,2.75,101.05C189.06,160.08,188.93,100.7,184.89,68.85ZM95.32,130.59h0Zm0,0h0ZM75.21,108.08l.56,2.45c2.73,12,10.57,20.06,19.52,20.06-9.57,0-18-9.59-20.05-22.8h0a18.64,18.64,0,0,1-2.85,2.71c.31-.24.62-.5.93-.76Zm20.12,22.51ZM77.2,100.86l1,6.46c1.82,11.75,9,20.27,17.1,20.27s15.38-8.62,17.14-20.5l1-6.68,4.29,5.22c5,6.07,13.37,7.37,19.08,3a12.73,12.73,0,0,0,4.83-9A15.07,15.07,0,0,0,138.47,89a15.5,15.5,0,0,0-4.32-3.84l-3.85-2.3,3.59-2.68a15.4,15.4,0,0,0,4.46-5.28c3.53-6.83,1.51-15-4.46-18.58-3.82,7.32-11.53,12.13-17.51,14.92-7,3.28-15.26,5.4-21,5.4-7.39,0-29.9,0-37.69-17.14h0c-.42-.94-.81-1.91-1.17-2.9a12.76,12.76,0,0,0-5.22,7.31,15,15,0,0,0,1.21,11A15.4,15.4,0,0,0,57,80.16l3.59,2.68-3.85,2.3A15.5,15.5,0,0,0,52.41,89a15.07,15.07,0,0,0-3.18,10.59,12.7,12.7,0,0,0,4.83,9c5.6,4.33,13.9,3.13,18.9-2.74ZM50.4,109.3A15.15,15.15,0,0,0,52.23,111l.45.34-.46-.34A16.83,16.83,0,0,1,50.4,109.3Zm89.7.38a13.59,13.59,0,0,1-1.45,1.27l-.45.34.45-.34A13.59,13.59,0,0,0,140.1,109.68Zm-24.64-1.83,1.9,1.72c.46.42.94.8,1.42,1.16a19.09,19.09,0,0,1-3.36-3.2c-.13.88-.29,1.75-.47,2.6Zm24.71-21.52c.23.27.46.54.67.82a18.15,18.15,0,0,1,3.87,11.34,18.15,18.15,0,0,0-3.87-11.34C140.63,86.87,140.4,86.6,140.17,86.33ZM46.46,95.1h0ZM46.7,94a10.62,10.62,0,0,0-.24,1.12A10.62,10.62,0,0,1,46.7,94Zm0,0Zm89-11.42a18.88,18.88,0,0,1,3,2.25,17.76,17.76,0,0,0-1.42-1.18l-1.44-1.08,1.33-1.22c.28-.26.55-.53.81-.8a18.46,18.46,0,0,1-2.29,2Zm-82-1.21L55,82.55l-1.45,1.08-.69.55a18.22,18.22,0,0,1,2.29-1.62h0A17,17,0,0,1,53.73,81.35Zm-.09-.09h0ZM53.37,81a3.07,3.07,0,0,0,.26.25A3.07,3.07,0,0,1,53.37,81Zm0,0h0Zm0,0h0ZM48,65.17a18,18,0,0,0,1.13,9.44A18,18,0,0,1,48,65.17Zm94.79-.71a18,18,0,0,1-.89,9.87A17.93,17.93,0,0,0,142.77,64.46ZM113.87,69c-6.89,3-14,4.59-18.47,4.59C99.86,73.62,107,72.05,113.87,69ZM60.44,58.24c6.66,14.63,26,15.34,33.86,15.38-7.82,0-27.2-.75-33.86-15.38a33.7,33.7,0,0,1-1.63-4.42c-.29-1-.54-2-.74-3s-.4-2.32-.52-3.53l-.18-1.76a40.07,40.07,0,0,0,.75,5.64l.26,1.2h0L58.84,54a36.3,36.3,0,0,0,1.6,4.28Zm.81-7c.13.58.28,1.14.44,1.7a30.33,30.33,0,0,0,1.48,4C69.37,70.62,89,70.62,95.4,70.62c9,0,28.59-6.8,33.57-17.9a13.13,13.13,0,0,0,.57-1.47,39.54,39.54,0,0,1-12.72,8.12,44.32,44.32,0,0,1-8.46,2.43,55.38,55.38,0,0,1-13.11.83,81.34,81.34,0,0,1-8.49-.87c-1.77-.28-3.51-.61-5.16-1-1.13-.27-2.14-.53-3.11-.81a57.88,57.88,0,0,1-6.19-2.16,49.27,49.27,0,0,1-6-3A38.25,38.25,0,0,1,61.25,51.28Zm103.39-46a23,23,0,0,1,2,1.34c10.68,8,13.71,27.44,17.55,56.73C180.33,34,177.3,14.6,166.62,6.59A23,23,0,0,0,164.64,5.25ZM53.24,55.33a15.81,15.81,0,0,0-4.59,7A15.81,15.81,0,0,1,53.24,55.33ZM136,54.08a15.69,15.69,0,0,1,5.93,7.47A15.52,15.52,0,0,0,136,54.08Zm-39.38,5.6c1.77.06,3.49,0,5.19-.08C100.12,59.71,98.38,59.74,96.62,59.68ZM61.5,47.5c.5.48,1,1,1.61,1.43a34.87,34.87,0,0,0,4.68,3.27A44.56,44.56,0,0,0,73.45,55a54.88,54.88,0,0,0,5.87,2c.92.26,1.89.52,3,.77,1.58.37,3.24.69,4.93,1l1.39.2q-1.1-.15-2.16-.33a60.21,60.21,0,0,1-12.74-3.58,46.58,46.58,0,0,1-6-3A35,35,0,0,1,61.5,47.5Zm53-38.41.45.2c.52.23,1.06.5,1.69.85l.34.19c.51.29,1,.6,1.49.92l.5.35c.35.25.7.52,1,.8s.61.5.91.75l.58.52c5,4.63,8.78,11.6,10.59,19.62l0,.12c.06.27.12.54.17.81l0,.22c.13.69.25,1.37.36,2.06.06.38.12.76.17,1.15s.08.67.11,1c.08.68.14,1.35.19,2l0,.55-.15.43a30.24,30.24,0,0,1-8.74,10,36.7,36.7,0,0,1-9.2,5.1,42.27,42.27,0,0,1-4.08,1.33,41.33,41.33,0,0,0,4.64-1.53,37.61,37.61,0,0,0,8.17-4.51,35.79,35.79,0,0,0,3.69-3.1l.16-.15c.15-.14.29-.28.43-.43a31.18,31.18,0,0,0,2.44-2.76l2.71-3.47a51.22,51.22,0,0,0-.89-7.75l-.12-.58.1-.15-.94-3.25C128.8,21.2,123.62,14,116.89,10.26l-.18-.1c-.61-.34-1.18-.62-1.73-.87ZM34,3c-2.94,0-6,1.21-9.21,3.59C14.9,14,11.59,31.32,8.09,57.19,11.59,31.31,14.9,14,24.82,6.59c3.82-2.86,7.53-4,11-3.44A12,12,0,0,1,41,5.48,12,12,0,0,0,35.8,3.15,10.4,10.4,0,0,0,34,3ZM60.4,41.22c.33,1.09,2.86,4.74,8.8,8.29a44.37,44.37,0,0,0,5.65,2.8A56.3,56.3,0,0,0,87,55.71a74,74,0,0,0,8.6.93,49.75,49.75,0,0,0,12.5-.88,39.15,39.15,0,0,0,6-1.77,33.84,33.84,0,0,0,8.46-4.68,27.66,27.66,0,0,0,7.67-8.62c0-.58-.09-1.16-.16-1.74,0-.28-.06-.56-.1-.85s-.11-.79-.17-1.15c-.1-.64-.21-1.28-.33-1.91l-.05-.23c0-.24-.1-.49-.16-.74l0-.12c-1.67-7.43-5.12-13.85-9.7-18.08l-.51-.45c-.26-.23-.53-.46-.8-.67s-.62-.48-.93-.7l-.44-.31c-.42-.28-.85-.55-1.29-.8l-.22-.13c-.64-.35-1.11-.58-1.55-.78A46.13,46.13,0,0,0,95.18,8.4C85,8.4,75.27,11.29,71,15.61c-.32.32-.63.65-.94,1l-.44.5-.37.44a40.17,40.17,0,0,0-7.56,15.51c-.34,1.36-.62,2.72-.82,4h0A40.68,40.68,0,0,0,60.4,41.22Zm72.91,4.72,0,.69c0,.61-.07,1.21-.12,1.82a16.64,16.64,0,0,1-.39,2.37,17.55,17.55,0,0,1-.8,2.52l.45-1.05h0l.31-1.24a15.88,15.88,0,0,0,.44-2.6C133.23,47.61,133.28,46.78,133.31,45.94ZM56.9,53l-.49.22.24-.11Zm76.76-.14L134,53l.39.17-.71-.32Zm-76.36-10,2.13,2.41a9.07,9.07,0,0,1-2-3.66l0-.16v-.16a45.67,45.67,0,0,1,.47-4.63h0c.21-1.42.51-2.88.87-4.33a43.3,43.3,0,0,1,8.16-16.69l.41-.49.16-.18,0,0c-.25.28-.49.57-.73.86l-.33.4c-.33.42-.65.84-1,1.28l-.08.11c-.3.42-.59.85-.87,1.28l-.23.36c-.26.41-.52.82-.76,1.24l-.13.21a44.79,44.79,0,0,0-3.91,8.87l-1,3.13.08.13-.14.6A43.9,43.9,0,0,0,57.3,42.86ZM45.91,11c.7,1.09,2,3.36,3.53,6.2l.43.77-.43-.77C47.81,14.21,46.6,12,45.91,11Zm99.44.3c-.71,1.14-1.85,3.2-3.25,5.72C143.51,14.44,144.64,12.4,145.35,11.26Zm-76.9,2.62-.58.63C68.06,14.29,68.25,14.09,68.45,13.88ZM86.92,6c-7.77,1-14,3.55-17.91,7.33C72.71,9.74,79.29,7.11,86.92,6Zm58.43,5.26ZM157.41,3a10.4,10.4,0,0,0-1.77.15A12.18,12.18,0,0,0,150,5.84a12.18,12.18,0,0,1,5.65-2.69A15.59,15.59,0,0,1,157.45,3Z"/></g></g></svg>