<svg xmlns="http://www.w3.org/2000/svg" viewBox="0 0 82.97 110.06"><defs><style>.cls-1{fill:#f6ab00;}.cls-2{fill:#fff;}</style></defs><title>アセット 12</title><g id="レイヤー_2" data-name="レイヤー 2"><g id="レイヤー_1-2" data-name="レイヤー 1"><path class="cls-1" d="M78.59,108.45S91.29,4.6,41.52,3.26s-37,86.33-37,86.33"/><path class="cls-2" d="M78,50.63C74.23,26.52,64.58,3.88,41.52,3.26,16.63,2.59,7.39,24.17,4.37,45.92A65.84,65.84,0,0,0,39,57.51C60,58.51,78,50.63,78,50.63Z"/><path d="M81.28,70.92c-1.09-27.26-6.6-46.85-16.39-58.21A30.91,30.91,0,0,0,41.48,1.52C31,1.22,22.3,4.8,15.8,12.12c-6.67,7.52-11,18.8-13,33.62l-.08.6h0c-.55,4.2-.91,8.65-1.08,13.4A187.9,187.9,0,0,0,3,89.57l3-.43a180.51,180.51,0,0,1-.47-40.79A68.76,68.76,0,0,0,38.85,58.78q1.93.09,3.84.09a99,99,0,0,0,34-6.36c3.76,26.86.44,55.08.39,55.52l3,.36A261.62,261.62,0,0,0,81.28,70.92ZM39,55.78A66,66,0,0,1,5.93,45c1.7-11.68,5.25-23.17,12.12-30.91A28,28,0,0,1,36.76,4.69a37.19,37.19,0,0,1,4.64-.16,31.16,31.16,0,0,1,4.89.5l.43.09,1,.23.78.2.61.17,1,.33.3.11c.42.15.84.3,1.24.47l0,0a28.71,28.71,0,0,1,10.86,8C69.93,23.15,74,36,76.18,49.47,72,51.09,56.51,56.61,39,55.78Z"/><path d="M81.32,110.06l-6-.73.18-1.49c0-.27,3.18-27.29-.14-53.27a100.33,100.33,0,0,1-32.71,5.8c-1.3,0-2.62,0-3.91-.1a71,71,0,0,1-32-9.4,180.07,180.07,0,0,0,.72,38.06l.21,1.48-5.94.87-.21-1.49A189.73,189.73,0,0,1,.11,59.68c.15-4.32.48-8.54,1-12.55h0l.21-1.58c2-15.12,6.55-26.7,13.4-34.41S30.54-.31,41.52,0A32.34,32.34,0,0,1,66,11.73C76,23.36,81.68,43.25,82.78,70.86h0a263.11,263.11,0,0,1-1.28,37.71ZM77.86,50.44l.26,1.87c2.22,15.79,2,31.9,1.45,42.74.35-6.58.57-15,.21-24.07h0c-1.06-26.5-6.3-45.6-15.59-56.77,6.44,7.75,11,19.52,13.47,35l.19,1.19-1.12.44c-4.29,1.68-19.39,7-36.71,6.46.89,0,1.78,0,2.67,0A97.19,97.19,0,0,0,76.1,51.11ZM4.22,46.18l0,.36c-.55,4.21-.91,8.67-1.08,13.25A190.46,190.46,0,0,0,4.29,87.87h0A181.73,181.73,0,0,1,4,48.17l.28-2.39,2,1.31a67.27,67.27,0,0,0,30.28,10A67.05,67.05,0,0,1,5.08,46.25l-.77-.53.14-.92c2-14,6.24-24.66,12.47-31.68A29.46,29.46,0,0,1,36.61,3.2,37.26,37.26,0,0,1,41.44,3a32,32,0,0,1,5.12.53l.46.09,1.07.24.83.21.64.18,1.1.35.32.11c.44.16.87.32,1.31.5a30.28,30.28,0,0,1,10.94,7.85A29.37,29.37,0,0,0,41.44,3c-10.08-.29-18.31,3.11-24.52,10.1C10.48,20.38,6.22,31.42,4.25,46Zm34.84,8.1C54.94,55,69.11,50.5,74.5,48.5c-2.51-14.68-6.88-25.73-13-32.85A27.47,27.47,0,0,0,51.18,8c-.42-.17-.81-.32-1.21-.46l-.28-.1-1-.31L48.13,7l-.75-.2-1-.21L46,6.51A29.79,29.79,0,0,0,41.36,6a36.77,36.77,0,0,0-4.45.15,26.55,26.55,0,0,0-17.74,8.93C13.46,21.53,9.56,31.35,7.55,44.3a64.46,64.46,0,0,0,31.51,10Z"/></g></g></svg>