<svg xmlns="http://www.w3.org/2000/svg" viewBox="0 0 79.97 106.94"><defs><style>.cls-1{fill:#f6ab00;}.cls-2{fill:#fff;}</style></defs><title>アセット 3</title><g id="レイヤー_2" data-name="レイヤー 2"><g id="レイヤー_1-2" data-name="レイヤー 1"><path class="cls-1" d="M77.09,106.94S89.79,3.1,40,1.76s-37,86.33-37,86.33"/><path class="cls-2" d="M76.45,49.13C72.73,25,63.08,2.38,40,1.76,15.13,1.09,5.89,22.67,2.87,44.42A65.84,65.84,0,0,0,37.5,56C58.5,57,76.45,49.13,76.45,49.13Z"/><path d="M79.78,69.42c-1.09-27.26-6.6-46.85-16.39-58.21A30.88,30.88,0,0,0,40,0C29.48-.28,20.8,3.3,14.3,10.62c-6.67,7.52-11,18.8-13,33.62l-.08.6h0C.65,49,.28,53.49.11,58.24A185.78,185.78,0,0,0,1.5,88.07l3-.43c0-.33-2.86-20.33-.47-40.79A68.78,68.78,0,0,0,37.35,57.27c1.29.07,2.58.1,3.84.1a99,99,0,0,0,34-6.36c3.76,26.86.44,55.08.39,55.52l3,.36A261.72,261.72,0,0,0,79.78,69.42ZM37.49,54.28A66,66,0,0,1,4.43,43.52C6.14,31.84,9.68,20.35,16.55,12.61A28,28,0,0,1,35.26,3.19,35.37,35.37,0,0,1,39.9,3a31,31,0,0,1,4.89.5l.43.09,1,.22.78.21.61.17c.35.1.7.21,1,.33l.3.11c.42.14.84.3,1.25.47l0,0a28.78,28.78,0,0,1,10.86,8C68.43,21.65,72.5,34.49,74.68,48,70.53,49.59,55,55.1,37.49,54.28Z"/></g></g></svg>