<svg xmlns="http://www.w3.org/2000/svg" viewBox="0 0 82.97 110.06"><defs><style>.cls-1{fill:#f6ab00;}.cls-2{fill:#fff;}</style></defs><title>アセット 11</title><g id="レイヤー_2" data-name="レイヤー 2"><g id="レイヤー_1-2" data-name="レイヤー 1"><path class="cls-1" d="M4.38,108.44S-8.32,4.59,41.45,3.25s37,86.34,37,86.34"/><path class="cls-2" d="M5,50.63C8.74,26.51,18.38,3.87,41.45,3.25,66.34,2.58,75.58,24.17,78.6,45.92A65.89,65.89,0,0,1,44,57.5C23,58.5,5,50.63,5,50.63Z"/><path d="M81.36,59.73c-.17-4.74-.54-9.2-1.08-13.39h0l-.09-.68c-2-14.78-6.36-26-13-33.54C60.67,4.8,52,1.24,41.49,1.51a30.91,30.91,0,0,0-23.41,11.2C8.29,24.07,2.78,43.65,1.69,70.92A261.72,261.72,0,0,0,3,108.39l3-.37c-.06-.43-3.38-28.65.39-55.51a99,99,0,0,0,34,6.35c1.26,0,2.55,0,3.84-.09A68.56,68.56,0,0,0,77.47,48.34,179.32,179.32,0,0,1,77,89.14l3,.43A185.85,185.85,0,0,0,81.36,59.73ZM44,55.78c-17.51.83-33-4.69-37.2-6.32C9,36,13,23.15,20.35,14.66a28.78,28.78,0,0,1,10.86-8l.05,0,1.23-.47.31-.1c.34-.12.69-.23,1-.33l.62-.17.78-.21,1-.22L36.68,5a32.12,32.12,0,0,1,4.89-.51c.62,0,1.22,0,1.82,0,8.79.2,16,3.4,21.53,9.6C71.79,21.84,75.33,33.34,77,45A65.84,65.84,0,0,1,44,55.78Z"/><path d="M1.66,110.06l-.19-1.49A261.11,261.11,0,0,1,.19,70.86c1.1-27.61,6.74-47.51,16.75-59.13A32.33,32.33,0,0,1,41.45,0c11-.29,20,3.44,26.84,11.1S79.63,30.37,81.68,45.46L81.89,47l0,0c.5,4.06.84,8.32,1,12.69a189.73,189.73,0,0,1-1.4,30.11l-.22,1.48L75.3,90.4l.22-1.48a178.8,178.8,0,0,0,.72-38.06,71.19,71.19,0,0,1-32,9.41c-1.29.06-2.61.09-3.91.09A100.73,100.73,0,0,1,7.56,54.57c-3.36,26.25-.17,53-.13,53.27l.18,1.49ZM42.61,3H41.53A29.49,29.49,0,0,0,19.21,13.68C9.65,24.78,4.26,44.06,3.19,71a262.31,262.31,0,0,0,1.1,35.73h0C3.65,100.5,1.53,76,4.84,52.3l.26-1.87,1.77.68a97.25,97.25,0,0,0,33.41,6.25q1.06,0,2.13,0A98.58,98.58,0,0,1,6.24,50.86l-1.13-.45.19-1.19c2.56-15.84,7.24-27.79,13.91-35.53A30.45,30.45,0,0,1,30.63,5.26c.49-.2.92-.36,1.36-.52l.32-.11c.37-.13.73-.24,1.09-.35L34,4.12l.9-.24L36,3.65l.44-.09A33.27,33.27,0,0,1,41.53,3c.63,0,1.27,0,1.89,0,9.25.22,16.86,3.61,22.62,10.1,6.24,7,10.44,17.69,12.48,31.69l.14.92-.77.53A66.89,66.89,0,0,1,46.54,57.11a67.32,67.32,0,0,0,30.12-10l2-1.31.28,2.4a180.76,180.76,0,0,1-.19,39,190.61,190.61,0,0,0,1.09-27.35c-.16-4.58-.52-9-1.07-13.26l-.08-.66c-2-14.49-6.23-25.51-12.66-32.75C60.08,6.4,52.2,3,42.61,3ZM8.47,48.5c5.4,2,19.6,6.53,35.44,5.78h0a64.31,64.31,0,0,0,31.5-10c-2-12.95-5.9-22.77-11.61-29.19C58.61,9.26,51.73,6.21,43.36,6c-.57,0-1.16,0-1.75,0A29.67,29.67,0,0,0,37,6.51l-.39.08c-.33.06-.66.13-1,.21L34.85,7l-.59.17c-.33.09-.65.2-1,.31l-.31.1c-.38.14-.77.28-1.15.44a27.56,27.56,0,0,0-10.34,7.63C15.35,22.77,11,33.81,8.47,48.5Z"/></g></g></svg>