<svg xmlns="http://www.w3.org/2000/svg" viewBox="0 0 79.97 106.94"><defs><style>.cls-1{fill:#f6ab00;}.cls-2{fill:#fff;}</style></defs><title>アセット 4</title><g id="レイヤー_2" data-name="レイヤー 2"><g id="レイヤー_1-2" data-name="レイヤー 1"><path class="cls-1" d="M2.88,106.94S-9.82,3.09,40,1.75s37,86.34,37,86.34"/><path class="cls-2" d="M3.52,49.13C7.23,25,16.88,2.37,40,1.75,64.84,1.08,74.08,22.67,77.1,44.42A65.89,65.89,0,0,1,42.47,56C21.47,57,3.52,49.13,3.52,49.13Z"/><path d="M79.86,58.23c-.17-4.74-.54-9.2-1.08-13.39h0l-.09-.68c-2-14.78-6.36-26-13-33.54C59.16,3.3,50.54-.26,40,0A30.87,30.87,0,0,0,16.58,11.21C6.79,22.57,1.28,42.15.19,69.42a261.72,261.72,0,0,0,1.27,37.47l3-.37c-.06-.43-3.38-28.65.39-55.51a99,99,0,0,0,34,6.35c1.26,0,2.55,0,3.84-.09A68.56,68.56,0,0,0,76,46.84a179.32,179.32,0,0,1-.47,40.8l3,.43A185.85,185.85,0,0,0,79.86,58.23ZM42.48,54.28C25,55.11,9.43,49.59,5.28,48c2.18-13.47,6.26-26.31,13.57-34.8a28.83,28.83,0,0,1,10.85-8l.06,0c.4-.16.81-.32,1.23-.47l.31-.1c.34-.12.69-.23,1-.33L33,4.05l.78-.21,1-.22.42-.09A32.12,32.12,0,0,1,40.07,3c.61,0,1.22,0,1.82,0,8.79.2,16,3.4,21.53,9.6,6.87,7.73,10.41,19.23,12.12,30.91A65.78,65.78,0,0,1,42.48,54.28Z"/></g></g></svg>