<svg xmlns="http://www.w3.org/2000/svg" viewBox="0 0 877.91 97.24"><title>アセット 9</title><g id="レイヤー_2" data-name="レイヤー 2"><g id="レイヤー_1-2" data-name="レイヤー 1"><path d="M55.33,46.81v.54c-.1.53-.53.84-1.27,1.16a58.83,58.83,0,0,0,9.66,17.84,2.81,2.81,0,0,1,1.06-1.6A69.33,69.33,0,0,0,79.32,50.32c.64-.85,1.38-1.38,2.44-.75,3.19,2,7.86,6.37,7.22,8.28-.42,1.49-2.12,1.6-5.09.54-4.14,3-10.41,7.21-17,9.55a5,5,0,0,1-1.7.21c7.65,8.49,17.94,14.23,30.68,16.46,3.51.63,2.76,2.44.53,3.29-2.76,1.06-3.71,2-4.56,3.29-1.27,1.91-2.12,2.65-5.1,1.7C68.28,87.47,55.33,71.65,49.39,49h-.53c-3.29,3-6.8,5.84-10.3,8.5C39.94,58.28,41,59,41,59.87c0,1.7-1.8,2.44-4.56,3V81.63a179.5,179.5,0,0,0,19.85-5.2c4.67-1.38,5.52,1.91,1.27,4-8.17,4-18.89,8.06-37.37,12-.63,2.55-1.8,4.88-3.6,4.78C14.36,97,13,92,12.34,86.3c0-1,.42-1.27,1.27-1.27,5.52-.53,10.72-1.17,15.5-2,.11-6.05.11-13.37,0-18.68a110.19,110.19,0,0,1-26,12.31c-3.5.85-4.24-2.33-1.16-3.61C17.43,65.39,32,55.94,39.2,46.81H3.53c-1.38,0-2.34-.42-2.34-2.12s1-2.12,2.34-2.12H44.19c.1-3.29.1-7.22.1-11.25H16.48c-1.38,0-2.34-.43-2.34-2.13s1-2.12,2.34-2.12H44.29c0-3.5-.1-7.11-.21-10.4H10.22c-1.38,0-2.34-.43-2.34-2.13s1-2.12,2.34-2.12H44c-.1-4.67-.32-8.49-.63-10.93C43.23.53,43.87,0,44.82,0c1.81,0,12.42.32,12.42,3.08,0,2.33-2.33,3.18-5.62,3.93v5.41H74.76C77,9.13,79.85,5.31,81.45,5.31c2.12,0,9.76,6.37,9.76,8.91,0,1.49-1.8,2.45-5.84,2.45H51.62v10.4H68.28c2.13-3.19,4.89-6.9,6.48-6.9,2.12,0,9.66,6.26,9.66,8.81,0,1.49-1.81,2.34-5.73,2.34H51.62V42.57h27.6c2.33-3.51,5.41-7.65,7.11-7.65,2.23,0,10.3,6.69,10.3,9.35,0,1.59-1.81,2.54-6.16,2.54Z"/><path d="M107.77,32c-1.38,0-2.34-.42-2.34-2.12s1-2.12,2.34-2.12h33a2.38,2.38,0,0,1,.32-1.06,53.6,53.6,0,0,0,4.25-12.21c0-.11.11-.32.11-.43H110.74c-1.38,0-2.33-.42-2.33-2.12s1-2.12,2.33-2.12h22.61c0-2.55,0-5.52-.21-8.07A1.34,1.34,0,0,1,134.63.11c1.8,0,10.72.42,10.72,3,0,1.8-1.81,2.55-4.67,3.18V9.77h11.14c2-2.87,4.36-6,5.74-6,1.91,0,8.38,5.83,8.49,8.06,0,1.49-1.8,2.23-5,2.23H149.91c2.87,1.38,5.74,3.51,5.74,4.78s-1.28,2-4.57,1.91a58.48,58.48,0,0,1-5.52,7h9.56c1.91-2.87,4.24-5.95,5.52-5.95,1.91,0,8.06,5.84,8.06,8.07,0,1.49-1.7,2.12-4.56,2.12Zm32.91,47.77c.1,5.63.21,10.19.21,12.53s-1.38,3.82-4.78,3.82c-2,0-2.65-1.17-2.65-3.18,0-2.66.21-7.22.21-13.17h-25.9c-1.38,0-2.34-.42-2.34-2.12s1-2.12,2.34-2.12h25.9V65.6h-10.4v2.23c0,2.23-1.59,3.29-4.67,3.29a2.54,2.54,0,0,1-2.76-2.86c0-6.69.53-22.93-.43-32.06a1.27,1.27,0,0,1,1.49-1.38,27.21,27.21,0,0,1,8.49,3.5h24.74c1.48-2,3.39-4.35,4.56-4.35,1.91,0,7.75,4.46,7.75,6.79,0,1.38-1.59,2.23-3.4,2.87-.1,5.73.11,18.36.11,21.34,0,3.29-1.59,4-4.25,4-2.33,0-3-1.8-3.08-3.4h-8.59a1.66,1.66,0,0,1,.21.64c0,1.06-.85,1.7-2.66,2l-.1,7.22h13.48c1.91-2.76,4.14-5.74,5.41-5.74,1.91,0,8.18,5.63,8.18,7.86,0,1.49-1.59,2.12-4.78,2.12ZM124,22.08a43.16,43.16,0,0,0-1.59-4.78c-.85-2,.53-3.71,3-2.33,3.93,2.12,7.75,5.09,6.9,8.91a4.15,4.15,0,0,1-5.2,3.3C124.86,26.65,124.65,24.31,124,22.08Zm-.64,20.59c-.1,1.38-.21,4.36-.21,7H152V42.57H124Zm-.1,18.69h28.55l.11-7.43H123.16v.32ZM204.69,64c0,1.7-2.44,2-5.94,1.38C191.63,75.9,176,90.66,153.2,96.28c-2.65.64-3.71-2.44-1.06-3.61,21.23-9,33.76-20.48,41.72-35.88.64-1.17,1.38-1.27,2.23-.95C200.13,57.64,204.8,61.25,204.69,64Zm-9.45-36.52c3.19,1.49,8.81,5.74,8.6,8.39-.21,1.7-2.65,1.81-6.05,1-7,7.64-17.73,16.87-29.83,21.86-2.34,1.07-3.71-1.06-1.59-3,10.19-7.85,19.11-16.13,25.79-27.28C192.91,27,193.86,26.75,195.24,27.49ZM170.4,25.26c6.37-6.47,13.7-13.69,18.58-22.92.64-1.28,1.49-1.49,2.87-.85,3.29,1.59,9.12,6.15,8.81,8.7-.22,1.81-2.66,1.91-5.95.85-5.52,5.52-14,13.16-22.29,17.2C170.08,29.3,168.39,27.18,170.4,25.26Z"/><path d="M243.33,78a214.2,214.2,0,0,0,22.4-6.47c4.46-1.59,5.52,1.8,1.38,3.93-10.09,5-24,10-46.18,15.18-.43,2.54-1.49,4.88-3.29,4.88-2.23,0-4.14-5-5.1-10.83-.1-1.06.32-1.38,1.17-1.48,8.17-1.07,15.5-2.23,22.19-3.61V48.83H219c-1.38,0-2.34-.42-2.34-2.12s1-2.13,2.34-2.13h28.87c2.23-3.5,5.2-7.43,6.8-7.43,2.23,0,9.44,6.69,9.44,9.24,0,1.49-2.22,2.44-5.52,2.44H246.3a.93.93,0,0,1,.11.53c0,1.17-1,2-3.08,2.55Zm28.24-51.8c2.44,28.13,12,50.11,25.15,58.17,2.76,1.6,4.46,1.07,5.74-1.27,1-1.7,1.91-4.35,2.54-5.84,1.07-2.33,3.51-2,3.4.53,0,2.23-.21,5-.1,7.33,0,3,1.16,5.09,1.16,7.64-.1,2.34-1.7,3.18-4.88,3.18-4.25,0-9.34-1.91-14.33-6.47-14.12-11.68-22.51-32.8-26.12-63.27H215.94c-1.38,0-2.34-.42-2.34-2.12s1-2.13,2.34-2.13h47.77c-.64-6-1.06-12.52-1.27-19.32-.11-2.23.31-2.54,2.23-2.54,4.45,0,11,1.48,11,4,0,1.38-1.6,2.55-4.78,3.18q-.17,7.49.32,14.65h21.44c2.23-3.39,5.1-7.21,6.69-7.21,2.12,0,9.23,6.47,9.23,9,0,1.59-1.91,2.44-5.3,2.44ZM279,6.37c-1.49-2.23-.43-4.57,2.76-3.72C287.38,4,293,6.79,293.22,11.78a4.93,4.93,0,0,1-5.09,5.42c-2.87.1-3.93-2.66-5.52-5.31A63.76,63.76,0,0,0,279,6.37Z"/><path d="M441.73,72.08C439.92,82.27,433,85.56,425,85.56c-7,0-13.27-4.56-13.27-10.93,0-8.18,7.65-13.17,17.94-13.17a44.17,44.17,0,0,1,7.65.64,64.67,64.67,0,0,0,.32-7.54,164.69,164.69,0,0,0-1.28-18.89c-17.73,2.65-32.37,10.72-39.49,23.25a22.68,22.68,0,0,0-3.39,11.46c0,7.33,3.07,12.53,3.07,15.92,0,3.19-1.59,4.25-3.61,4.25-2.86-.11-4.67-2.12-6.15-5.73s-2.34-7.65-2.34-16.56c0-14.65,6.27-34,7.22-38.86s1.06-7.74-.74-11.67c-1.28-2.87-2.76-5.1-3.4-6.48-1-1.91.43-2.86,2.23-2.23,4.35,1.49,8.71,5.42,10.09,9,1.16,3.07,1.48,5,.21,9.55-1.81,6.58-7.33,16.67-8.39,25.58-.32,2.76.21,3.4,3,0,9.35-11.57,20.17-19.64,40.77-24.2a43.4,43.4,0,0,0-.85-5.1,7.17,7.17,0,0,0-3.61-5.3c-2.76-1.6-4.14-2.44-4.14-3.72-.11-1.59,3.61-2.86,5.94-3a14.46,14.46,0,0,1,5.42.85c1.91.74,2.44,1.8,2.54,3.08.11,1.7.22,4.14.43,6.58,1.06,4.14,6.48,3.93,9.45,3.93,4.24,0,8.06,1.16,8.06,4,0,2.34-1.48,3.61-6.05,3.82-3.5.11-7,.32-10.5.74.42,5.95.84,13,.84,17.2,0,3.93,0,7.54-.21,11.25a44.74,44.74,0,0,1,17.2,9.77c2.87,2.76,4.78,6,4.78,9.24,0,2-1.06,3.5-3.19,3.5-2.44,0-5.2-3.4-8.6-7a43.93,43.93,0,0,0-10.93-8.38Zm-5.31-4a29,29,0,0,0-9.24-1.49c-5.41,0-10,2.65-10,6.37s3,5.31,7.65,5.31c6.47,0,10-3.08,11.57-10.09Z"/><path d="M501.81,11.36c3.82-.11,9.23,1.7,11.89,4.14,2.23,2,2.55,3.71,2.65,7,.21,5.84-6.69,33.66-5.94,47.24.53,9.88,7,11.79,13.9,11.79,18.05,0,27.07-10.94,34.18-21,2-2.87,4.46-1.59,3.51,1.48a39.41,39.41,0,0,1-36.94,27.39c-10.83.21-20.81-3-21.34-20.06-.43-12.95,3.08-30.15,3.08-41.61,0-3.83-.21-6.16-2-7.75-3.18-2.87-7.43-3.61-7.43-5.74C497.35,13.16,499.26,11.46,501.81,11.36ZM547.67,35a3.54,3.54,0,0,1-3.61,3.72c-2.44,0-3.19-1.81-5.63-4.67a87,87,0,0,0-6.37-6.37,1.61,1.61,0,0,1,1.28-2.87C540.24,25.37,547.67,30,547.67,35Zm9-10a3.41,3.41,0,0,1-3.5,3.72c-1.59,0-2.66-.85-4.67-3.08a53.78,53.78,0,0,0-7.86-6.58c-1.7-1.28-.95-3.08,1.06-3.08C548.52,16.14,556.69,19.64,556.69,25.05Z"/><path d="M663.59,86.83a3.63,3.63,0,0,1-3.51,3.61c-2.44,0-3.39-1.06-5.83-4A40.22,40.22,0,0,0,639.7,74.52c-1,9-5.2,14.86-15.28,14.86-9.88,0-14.34-4.67-14.34-10.4,0-7.75,8.5-12.1,17.84-12.1a53,53,0,0,1,6.05.32c.21-4,.21-8.6.11-13.7a70.6,70.6,0,0,1-9.66.64c-11.36,0-15-2.34-15-7.33.1-4.67,1.7-5.73,4-2.33,1.7,2.44,3,3.82,7,3.82a77.39,77.39,0,0,0,13.59-1.17c-.11-3.92-.22-10.4-.54-16.66-7,1.8-13,3.61-16,4.56-3.51,1.06-8.92,2.23-11.79,2.23-5.09,0-11.25-4.35-12.74-9.87-.53-1.91.85-2.87,2.76-1.81,2.87,1.7,6.8,4,10.73,4,5.83,0,17-2.76,26.75-5.63-.32-3.61-.64-6.79-1-8.81s-1.06-2.44-2.87-3.29c-1.06-.53-2.65-.85-2.65-2.23,0-1.91,3.29-4,5.73-4,2.87-.11,7.86,2,7.86,4.67,0,2.33-.21,7.53-.32,11.67,7-2.12,12.63-4,15.92-4,4.67,0,7.12,2.34,7.12,4.67,0,2.65-5.42,2.87-10.3,3.61-4.14.64-8.6,1.59-12.85,2.65-.1,4.36,0,9.88,0,17.2a43.2,43.2,0,0,0,10.51-3.71,3.21,3.21,0,0,0,1.7-3.4c-.21-1.49-.74-3.29-1.06-4.78s1-2,2.44-1.17c3.82,2.23,8.07,5.52,8.07,8.39,0,3.08-2.12,4.88-5.1,6.37-2.54,1.38-8.81,3.5-16.56,4.88C640,58.49,640,64,640,68.26A42.78,42.78,0,0,1,659.77,79C662.52,81.85,663.59,84.18,663.59,86.83ZM633.44,72.29a34.2,34.2,0,0,0-7.54-.85c-5.73,0-10.51,2.44-10.51,6s2.87,5.2,7.11,5.2c6.48,0,9.35-3.29,10.41-7.85C633.12,74,633.23,73.14,633.44,72.29Z"/><path d="M768.57,65.71c0,13.91-12.1,21.76-27,21.76-9,0-15.92-3.71-15.92-11,0-6.05,4.77-9.66,10.61-9.66a14.67,14.67,0,0,1,14.86,12.32c5.2-2.13,9.45-6.48,9.45-14.87,0-8.7-6.47-14.65-15.39-14.65-6.69,0-11.15,2-14.86,5.1-5.63,4.78-8.81,8.49-11.57,10.93s-5.52,2.45-6.69,0c-1.17-2.23-.32-5.2,2.86-8.38,4.57-4.35,15-12,20.7-16.88,6.27-5.52,14.23-13.06,17.1-18.26,1.27-2.23.42-3.4-1.28-3.4-6.16,0-23.46,12-29,12-5.2,0-10.72-6.37-10.72-11.47,0-2.54,1.27-3.18,3.08-1.8,2.12,1.7,5.31,4.25,7.75,4.25,3.82,0,13.8-3.61,22.18-6.37,3.19-1.17,5.63-1.91,8.07-1.91,5.52,0,11.36,5.73,11.36,9.23,0,3.08-5,5.84-8,8.17-7.33,5.53-13.27,10.41-19,15.4C754.88,42.67,768.57,51.38,768.57,65.71ZM743.41,80.78c-.42-6.26-3.5-9.66-7.85-9.66-3.08,0-4.88,1.6-5,4.36-.11,3.61,4.56,5.41,9.55,5.41A32.88,32.88,0,0,0,743.41,80.78Z"/><path d="M877.91,83.12a3.54,3.54,0,0,1-3.72,3.82c-5.09,0-10.72-9.87-24.09-15.39-.85,10.83-6,17.41-18.05,17.41C823.88,89,817,84.71,817,76.86c0-8.81,9.23-13.38,19-13.38a59,59,0,0,1,7.64.43c-.1-11.15-.53-26-2.76-36.73-.74-3.4-1.48-7.33-4-9.24s-5.42-2.87-5.42-4.67,4.25-3.5,6.9-3.5c4.36,0,6.37.63,7.44,4.45s1.91,10.83,2.65,19a44.4,44.4,0,0,0,12.21-3.51c3.18-1.48,5.52-3.18,8.17-3.18,2.87,0,5.41,1.38,5.41,3.61s-1.69,3.93-5.41,5.62c-5.09,2.34-13.8,3-20.06,1.92.85,10.19,1.27,21,1.48,27.38a61,61,0,0,1,22.61,10.41C877.06,78.77,877.91,81,877.91,83.12Zm-34.39-13.8a36.54,36.54,0,0,0-8.71-1.17c-5.94,0-11.68,2-11.68,7.11,0,4.67,4.14,6.69,8.18,6.69C838.74,82,842.77,77.49,843.52,69.32Z"/></g></g></svg>